<svg width="440" height="280" viewBox="0 0 440 280" fill="none" xmlns="http://www.w3.org/2000/svg">
  <defs>
    <linearGradient id="bg" x1="28" y1="18" x2="389" y2="271" gradientUnits="userSpaceOnUse">
      <stop stop-color="#F7F8F3"/>
      <stop offset="1" stop-color="#E7ECD8"/>
    </linearGradient>
    <linearGradient id="card" x1="46" y1="84" x2="356" y2="226" gradientUnits="userSpaceOnUse">
      <stop stop-color="#FFFFFF"/>
      <stop offset="1" stop-color="#F2F5EA"/>
    </linearGradient>
  </defs>
  <rect width="440" height="280" rx="28" fill="url(#bg)"/>
  <circle cx="381" cy="53" r="78" fill="#DCE7C0"/>
  <circle cx="80" cy="245" r="74" fill="#EEF3E3"/>
  <rect x="34" y="30" width="372" height="220" rx="24" fill="#18202A"/>
  <rect x="46" y="42" width="348" height="196" rx="18" fill="url(#card)"/>

  <text x="68" y="82" fill="#20252B" font-family="Arial, sans-serif" font-size="26" font-weight="700">
    WB Controller Tracker
  </text>
  <text x="68" y="110" fill="#53606B" font-family="Arial, sans-serif" font-size="15">
    Recently opened controllers, one click away
  </text>

  <rect x="66" y="130" width="308" height="42" rx="14" fill="#EEF2E7"/>
  <circle cx="89" cy="151" r="9" fill="#68B723"/>
  <text x="108" y="158" fill="#20252B" font-family="Arial, sans-serif" font-size="18" font-weight="700">
    A5FQ6ODF
  </text>
  <rect x="316" y="140" width="18" height="22" rx="4" fill="#242E3C"/>
  <path d="M321 151H329" stroke="white" stroke-width="2.4" stroke-linecap="round"/>
  <path d="M321 146L325 151L321 156" stroke="white" stroke-width="2.4" stroke-linecap="round" stroke-linejoin="round"/>
  <circle cx="352" cy="151" r="2.3" fill="#20252B"/>
  <circle cx="361" cy="151" r="2.3" fill="#20252B"/>
  <circle cx="370" cy="151" r="2.3" fill="#20252B"/>

  <rect x="66" y="180" width="308" height="42" rx="14" fill="#FFFFFF"/>
  <circle cx="89" cy="201" r="9" fill="#B9C0C8"/>
  <text x="108" y="208" fill="#20252B" font-family="Arial, sans-serif" font-size="18" font-weight="700">
    AAT3D5FW
  </text>
  <rect x="316" y="190" width="18" height="22" rx="4" fill="#242E3C"/>
  <path d="M321 201H329" stroke="white" stroke-width="2.4" stroke-linecap="round"/>
  <path d="M321 196L325 201L321 206" stroke="white" stroke-width="2.4" stroke-linecap="round" stroke-linejoin="round"/>
  <circle cx="352" cy="201" r="2.3" fill="#20252B"/>
  <circle cx="361" cy="201" r="2.3" fill="#20252B"/>
  <circle cx="370" cy="201" r="2.3" fill="#20252B"/>
</svg>
